<?xml version="1.0" encoding="UTF-8" standalone="no"?>
<svg
   xmlns:dc="http://purl.org/dc/elements/1.1/"
   xmlns:cc="http://creativecommons.org/ns#"
   xmlns:rdf="http://www.w3.org/1999/02/22-rdf-syntax-ns#"
   xmlns:svg="http://www.w3.org/2000/svg"
   xmlns="http://www.w3.org/2000/svg"
   xmlns:sodipodi="http://sodipodi.sourceforge.net/DTD/sodipodi-0.dtd"
   xmlns:inkscape="http://www.inkscape.org/namespaces/inkscape"
   enable-background="new 0 0 55 55"
   height="55px"
   version="1.1"
   viewBox="0 0 55 55"
   width="55px"
   x="0px"
   xml:space="preserve"
   y="0px"
   id="svg2"
   inkscape:version="0.91 r"
   sodipodi:docname="activity-icon.svg"><metadata
     id="metadata19"><rdf:RDF><cc:Work
         rdf:about=""><dc:format>image/svg+xml</dc:format><dc:type
           rdf:resource="http://purl.org/dc/dcmitype/StillImage" /><dc:title></dc:title></cc:Work></rdf:RDF></metadata><defs
     id="defs17" /><sodipodi:namedview
     pagecolor="#ffffff"
     bordercolor="#666666"
     borderopacity="1"
     objecttolerance="10"
     gridtolerance="10"
     guidetolerance="10"
     inkscape:pageopacity="0"
     inkscape:pageshadow="2"
     inkscape:window-width="1301"
     inkscape:window-height="744"
     id="namedview15"
     showgrid="false"
     inkscape:zoom="4.2909091"
     inkscape:cx="66.031514"
     inkscape:cy="27.5"
     inkscape:window-x="65"
     inkscape:window-y="24"
     inkscape:window-maximized="1"
     inkscape:current-layer="svg2"
     inkscape:snap-nodes="true" /><path
     sodipodi:type="spiral"
     style="fill:none;fill-rule:evenodd;stroke:#000000;stroke-width:1px;stroke-linecap:butt;stroke-linejoin:miter;stroke-opacity:1"
     id="path4153"
     sodipodi:cx="31.364407"
     sodipodi:cy="29.364407"
     sodipodi:expansion="1"
     sodipodi:revolution="3"
     sodipodi:radius="20.80558"
     sodipodi:argument="-18.127565"
     sodipodi:t0="0"
     d="m 31.364407,29.364407 c 0.782882,0.689402 -0.543055,1.395436 -1.145833,1.301201 -1.633491,-0.255371 -2.023433,-2.302142 -1.45657,-3.592866 1.013985,-2.308803 3.999025,-2.761265 6.0399,-1.611939 2.995065,1.686682 3.519193,5.718288 1.767308,8.486933 -2.334988,3.690169 -7.445411,4.285578 -10.933967,1.922677 -4.389992,-2.973469 -5.056315,-9.17626 -2.078046,-13.381001 3.607082,-5.092505 10.909203,-5.829567 15.828034,-2.233414 5.796673,4.237941 6.604401,12.643451 2.388784,18.275068 -4.867096,6.501925 -14.378571,7.380286 -20.722102,2.544152 -7.207923,-5.495123 -8.15691,-16.114302 -2.699521,-23.169136 6.122365,-7.9144563 17.85048,-8.9340675 25.616169,-2.85489 8.621387,6.74904 9.711627,19.586995 3.010259,28.063204"
     transform="matrix(0.92123769,0,0,0.97829572,-0.6911001,0.14485598)" /><ellipse
     style="fill:#ffffff;fill-rule:evenodd;stroke:#000000;stroke-width:5.014;stroke-linecap:butt;stroke-linejoin:miter;stroke-miterlimit:4;stroke-dasharray:none;stroke-opacity:1;fill-opacity:1"
     id="path3347"
     cx="28.29661"
     cy="27.868643"
     rx="19.35346"
     ry="19.586512" /><text
     xml:space="preserve"
     style="font-style:normal;font-weight:normal;font-size:40px;line-height:125%;font-family:sans-serif;letter-spacing:0px;word-spacing:0px;opacity:0.24500002;fill:#000000;fill-opacity:1;stroke:none;stroke-width:1px;stroke-linecap:butt;stroke-linejoin:miter;stroke-opacity:1"
     x="12.351695"
     y="38.220337"
     id="text4155"
     sodipodi:linespacing="125%"><tspan
       sodipodi:role="line"
       id="tspan4157"
       x="12.351695"
       y="38.220337"
       style="font-size:5px">&lt;style type=</tspan></text>
<path
     sodipodi:type="spiral"
     style="fill:none;fill-rule:evenodd;stroke:#000000;stroke-width:1px;stroke-linecap:butt;stroke-linejoin:miter;stroke-opacity:1"
     id="path4215"
     sodipodi:cx="26.567797"
     sodipodi:cy="27.733051"
     sodipodi:expansion="1"
     sodipodi:revolution="3.0077105"
     sodipodi:radius="22.665241"
     sodipodi:argument="-18.195745"
     sodipodi:t0="0"
     d="m 26.567797,27.733051 c 0.899729,0.689404 -0.485408,1.552945 -1.145834,1.49541 -1.789716,-0.155917 -2.363954,-2.345885 -1.844985,-3.787078 0.928314,-2.577956 4.130799,-3.289426 6.428321,-2.19456 3.371707,1.60676 4.238341,5.938486 2.544135,9.069565 -2.258109,4.173236 -7.754067,5.197004 -11.710808,2.89371 -4.979155,-2.89846 -6.160662,-9.573366 -3.243286,-14.352052 3.533334,-5.787628 11.39475,-7.127202 16.993296,-3.59286 6.597693,4.1651 8.095552,13.21743 3.942436,19.634539 -4.794938,7.408806 -15.040978,9.065108 -22.275783,4.292011 C 8.0346435,35.768239 6.2197803,24.326602 11.613703,16.274709 17.664869,7.2417027 30.303437,5.2681869 39.171973,11.283548 c 9.845755,6.678191 11.977995,20.51467 5.340736,30.199513 -0.206936,0.301955 -0.421218,0.598874 -0.642574,0.890423" /><text
     xml:space="preserve"
     style="font-style:normal;font-weight:normal;font-size:40px;line-height:125%;font-family:sans-serif;letter-spacing:0px;word-spacing:0px;fill:#b7b7b7;fill-opacity:1;stroke:none;stroke-width:1px;stroke-linecap:butt;stroke-linejoin:miter;stroke-opacity:1"
     x="12.021186"
     y="22.31356"
     id="text4235"
     sodipodi:linespacing="125%"><tspan
       sodipodi:role="line"
       id="tspan4237"
       x="12.021186"
       y="22.31356"
       style="font-size:5px;fill:#b7b7b7;fill-opacity:1">&lt;html&gt;</tspan></text>
<text
     xml:space="preserve"
     style="font-style:normal;font-weight:normal;font-size:42.14095306px;line-height:125%;font-family:sans-serif;letter-spacing:0px;word-spacing:0px;fill:#000000;fill-opacity:1;stroke:#000000;stroke-width:1.46604788;stroke-linecap:butt;stroke-linejoin:miter;stroke-miterlimit:4;stroke-dasharray:none;stroke-opacity:0.28301888"
     x="16.031389"
     y="42.759037"
     id="text4149"
     sodipodi:linespacing="125%"
     transform="matrix(1.0976628,0.12984273,-0.08153717,0.90138155,0,0)"><tspan
       sodipodi:role="line"
       id="tspan4151"
       x="16.031389"
       y="42.759037"
       style="fill:#000000;fill-opacity:1;stroke:#000069;stroke-width:1.46604788;stroke-miterlimit:4;stroke-dasharray:none;stroke-opacity:0.28301888">?</tspan></text>
</svg>