<?xml version="1.0" encoding="UTF-8" standalone="no"?>
<!-- Created with Inkscape (http://www.inkscape.org/) -->

<svg
   xmlns:dc="http://purl.org/dc/elements/1.1/"
   xmlns:cc="http://creativecommons.org/ns#"
   xmlns:rdf="http://www.w3.org/1999/02/22-rdf-syntax-ns#"
   xmlns:svg="http://www.w3.org/2000/svg"
   xmlns="http://www.w3.org/2000/svg"
   xmlns:sodipodi="http://sodipodi.sourceforge.net/DTD/sodipodi-0.dtd"
   xmlns:inkscape="http://www.inkscape.org/namespaces/inkscape"
   width="32"
   height="32"
   id="svg5557"
   version="1.1"
   inkscape:version="0.91 r"
   viewBox="0 0 32 32"
   sodipodi:docname="close.svg">
  <defs
     id="defs5559" />
  <sodipodi:namedview
     id="base"
     pagecolor="#ffffff"
     bordercolor="#666666"
     borderopacity="1.0"
     inkscape:pageopacity="0.0"
     inkscape:pageshadow="2"
     inkscape:zoom="11.197802"
     inkscape:cx="22.813155"
     inkscape:cy="10.005557"
     inkscape:current-layer="layer1"
     showgrid="true"
     inkscape:grid-bbox="true"
     inkscape:document-units="px"
     inkscape:window-width="1301"
     inkscape:window-height="744"
     inkscape:window-x="65"
     inkscape:window-y="24"
     inkscape:window-maximized="1" />
  <metadata
     id="metadata5562">
    <rdf:RDF>
      <cc:Work
         rdf:about="">
        <dc:format>image/svg+xml</dc:format>
        <dc:type
           rdf:resource="http://purl.org/dc/dcmitype/StillImage" />
        <dc:title />
      </cc:Work>
    </rdf:RDF>
  </metadata>
  <g
     id="layer1"
     inkscape:label="Layer 1"
     inkscape:groupmode="layer">
    <text
       xml:space="preserve"
       style="font-style:normal;font-weight:normal;font-size:8.50283146px;line-height:125%;font-family:sans-serif;letter-spacing:0px;word-spacing:0px;fill:#000000;fill-opacity:1;stroke:none;stroke-width:1px;stroke-linecap:butt;stroke-linejoin:miter;stroke-opacity:1"
       x="-21.15811"
       y="23.495159"
       id="text4136"
       sodipodi:linespacing="125%"
       transform="scale(-1.0186901,0.98165282)"><tspan
         sodipodi:role="line"
         id="tspan4138"
         x="-21.15811"
         y="23.495159"
         style="font-size:17.00566292px">X</tspan></text>
    <ellipse
       style="fill:none;stroke:#000000;stroke-width:1.21484208;stroke-miterlimit:4;stroke-dasharray:none;stroke-opacity:1"
       id="path4140"
       cx="-15.985283"
       cy="16.505886"
       rx="14.230019"
       ry="13.712646"
       transform="scale(-1,1)" />
    <path
       style="fill:#ececec;stroke:#000000;stroke-width:0.51036805;stroke-miterlimit:4;stroke-dasharray:none;stroke-opacity:1"
       d="M 13.775667,29.394087 C 10.950854,28.946592 8.2334016,27.56404 6.2297794,25.554983 4.3924367,23.712657 3.201008,21.530463 2.6455761,18.990238 2.4111846,17.918266 2.408444,15.062224 2.6408236,14.037524 3.0317162,12.313848 3.6207052,10.903146 4.5163693,9.5453605 6.5125163,6.5192944 9.5178683,4.509367 13.239848,3.7112495 c 1.260027,-0.2701922 4.074995,-0.295648 5.305527,-0.047978 4.250402,0.8554805 7.844853,3.5233439 9.645877,7.1593365 0.965606,1.94941 1.328262,3.479408 1.333556,5.626104 0.0051,2.052319 -0.333845,3.630323 -1.158846,5.395778 -1.829712,3.915475 -5.6265,6.762361 -10.020567,7.513564 -1.205703,0.206125 -3.387427,0.223329 -4.569728,0.03603 z m 0.07618,-8.859115 c 0.95095,-1.387198 1.756662,-2.505084 1.790471,-2.484189 0.03381,0.0209 0.840303,1.165923 1.79221,2.544506 l 1.730739,2.506514 0.971902,0 c 0.743933,0 0.956052,-0.02565 0.904326,-0.109341 -0.03717,-0.06014 -1.025428,-1.486914 -2.196137,-3.170616 -1.170709,-1.683702 -2.150064,-3.11731 -2.176344,-3.185796 -0.02721,-0.0709 0.78159,-1.320645 1.878305,-2.902334 1.059349,-1.527799 1.926089,-2.799119 1.926089,-2.825157 0,-0.02604 -0.430909,-0.03594 -0.957575,-0.022 l -0.957576,0.02535 -1.535123,2.212492 -1.535125,2.212492 -1.548272,-2.231684 -1.548272,-2.231684 -0.970281,-0.0031 -0.97028,-0.0031 0.158767,0.245584 c 0.08732,0.135071 0.968117,1.410991 1.957323,2.835378 0.989206,1.424387 1.827815,2.638192 1.863576,2.697345 0.03929,0.065 -0.784086,1.345156 -2.081007,3.235468 -1.180315,1.720356 -2.146027,3.150171 -2.146027,3.177366 0,0.0272 0.431845,0.03804 0.959655,0.0241 l 0.959656,-0.02535 1.729,-2.52218 z"
       id="path4190"
       inkscape:connector-curvature="0" />
  </g>
</svg>
